<svg width="80" height="18" viewBox="0 0 80 18" fill="none" xmlns="http://www.w3.org/2000/svg">
<path d="M11.3317 14.5949L12.6649 6.95925H19.5972C20.7304 7.02564 21.3303 6.42807 21.5303 5.29932L22.4635 0.186768H10.2652L7.59892 15.458C7.33229 16.5204 7.79889 17.0516 8.93207 16.9852H12.9982L13.2648 15.458H12.065C11.3317 15.5908 11.1318 15.3252 11.3317 14.5949ZM13.5981 1.84669H18.9307L18.7973 2.70985H13.4648L13.5981 1.84669ZM13.1315 4.43617H18.4641V4.63536C18.4641 5.23293 18.1308 5.43212 17.4642 5.36572H12.9982L13.1315 4.43617ZM8.99872 4.43617H8.59878L9.33201 1.84669L9.6653 0.186768H2.99958L0 16.9852H3.19955L5.86584 1.84669H6.79904L5.93249 4.43617H6.33244L4.26606 16.3876H5.26592C6.39909 16.454 6.99901 15.8564 7.19898 14.5949L8.99872 4.43617ZM50.2595 1.04993H43.5938L43.7271 0.186768H39.3278L39.1944 1.04993H32.9953L32.662 2.77624H38.8612L38.0613 7.35763C37.7946 5.7641 36.5948 4.63536 34.8617 4.63536C33.7286 4.63536 32.5954 5.16653 31.7955 5.96329L32.7954 0.186768H24.6632L22.2635 13.7981H25.4631L26.6629 7.02564H28.2627L27.0628 14.1301H18.664L17.5975 10.3455C17.5308 9.9471 17.4642 9.68152 17.5309 9.61512C17.5309 9.54872 17.7975 9.54872 18.1974 9.54872H20.7304L20.997 7.8888H14.8646C14.2646 7.8888 13.798 8.0216 13.5981 8.22079C13.4648 8.48637 13.4648 8.88475 13.5981 9.54872L15.6644 16.9852H15.9977H19.3306H28.0627C29.1959 17.0516 29.7958 16.5204 29.9291 15.458L30.6623 11.275C31.1956 12.0718 32.1288 12.603 33.262 12.603C34.995 12.603 36.5948 11.4742 37.3947 9.88071L36.1282 16.9852H38.9278C40.1276 17.1844 40.7942 16.6532 40.7942 15.458L43.0606 2.70985H49.7263L50.2595 1.04993ZM28.596 5.29932H26.9962L27.5961 1.84669H29.1959L28.596 5.29932ZM33.7952 10.9431C32.5287 10.9431 31.7288 9.88071 31.9288 8.55277C32.1288 7.22483 33.3286 6.16248 34.5951 6.16248C35.8616 6.16248 36.6615 7.22483 36.4615 8.55277C36.1949 9.88071 34.995 10.9431 33.7952 10.9431ZM34.3285 7.62321C33.7952 7.62321 33.3286 8.08799 33.1953 8.61917C33.1286 9.15034 33.4619 9.61512 33.9285 9.61512C34.4618 9.61512 34.9284 9.15034 35.0617 8.61917C35.195 8.08799 34.8617 7.62321 34.3285 7.62321ZM48.5931 10.4119L47.4599 16.9188H43.5272L44.6603 10.4119H48.5931ZM45.8602 3.90499L46.1268 2.24507H50.0596L49.7929 3.83859L45.8602 3.90499ZM44.927 8.88475L45.5935 5.23293H49.5263L48.8597 8.88475H44.927ZM51.8593 0.98353H56.3254C57.3919 0.98353 57.9251 0.917133 58.3917 0.319561H62.7911C62.3245 1.44831 61.458 1.97948 59.9248 1.97948H58.9916L58.3917 5.23293H63.0577L62.8578 6.22888H58.1918L57.6585 9.28314H59.7249C60.3914 9.28314 60.7914 9.81431 60.7247 10.4783L59.7915 15.8564C59.6582 16.5204 59.0583 17.0516 58.3917 17.0516H49.9263C49.2597 17.0516 48.8597 16.5204 48.9931 15.8564L49.9263 10.4783C50.0596 9.81431 50.6595 9.28314 51.3261 9.28314H53.6591L54.1923 6.22888H49.1264L49.3263 5.23293H54.3923L54.9922 1.97948H51.7927L51.8593 0.98353ZM55.3255 15.9892C55.6588 15.9892 55.8588 15.79 55.9254 15.458L56.7253 10.7439C56.792 10.5447 56.6586 10.2127 56.3254 10.2127H54.3256C54.059 10.2127 53.7924 10.4119 53.7257 10.7439L52.9258 15.458C52.8592 15.79 53.0592 15.9892 53.3258 15.9892H55.3255ZM65.4574 15.9892C65.5907 15.9892 65.6574 15.9228 65.724 15.8564C65.7907 15.79 65.8573 15.7236 65.8573 15.5908L66.1906 10.8103H69.0569L68.7236 16.0556C68.7236 16.5868 68.257 17.0516 67.7904 17.0516H61.458C60.9247 17.0516 60.7247 16.5868 60.858 16.0556L63.6576 6.29528H62.5245L62.6578 5.23293H70.7233L70.5233 6.22888H67.1238L64.5242 15.5244C64.4575 15.6572 64.4575 15.7236 64.5242 15.79C64.5909 15.8564 64.6575 15.9228 64.7242 15.9228H65.4574V15.9892ZM63.591 2.11228L63.791 1.11632H71.1233L70.9233 2.11228H63.591ZM71.4565 3.10823H72.3897C72.5897 2.17867 72.7897 1.24912 72.9897 0.253164H76.3225C76.1892 1.18272 75.9892 2.11228 75.7893 3.10823H79.9887L77.5224 16.9852H72.9897L73.1896 15.9892H73.7229C74.1228 15.9892 74.2561 15.8564 74.3228 15.5244L76.2559 4.63536C76.3225 4.30337 76.1892 4.17058 75.7893 4.17058H75.5893C74.6561 8.68556 73.5229 13.3333 72.3231 17.0516H68.8569C70.1234 13.2005 71.1233 9.08395 72.1898 4.17058H71.3232L71.4565 3.10823Z" fill="white"/>
</svg>
