<svg width="106" height="36" viewBox="0 0 106 36" fill="none" xmlns="http://www.w3.org/2000/svg">
<path d="M6.1499 35.05C6.5499 35.05 6.8499 34.85 6.9999 34.45V34.4C7.0499 34.15 7.0499 33.95 6.9499 33.7C6.8499 33.5 6.6999 33.35 6.1499 33.2C5.7499 33.2 5.4499 33.4 5.2999 33.85C5.2499 34.1 5.2499 34.35 5.3999 34.55C5.5499 34.8 5.7999 34.95 6.1499 35.05ZM7.0499 32.3C7.3999 32.3 7.6999 32.1 7.8499 31.75L14.8499 11.25C14.8999 11.05 14.8999 10.85 14.7999 10.6C14.6999 10.4 14.5499 10.25 14.0499 10.15C13.6999 10.15 13.4499 10.35 13.2499 10.7L6.2999 31.2C6.1499 31.75 6.3999 32.1 7.0499 32.3ZM24.6499 32.2C24.8999 32.15 25.0499 32 25.1499 31.8C25.2499 31.6 25.2499 31.4 25.1999 31.2L23.7999 26.85C23.6499 26.5 23.3499 26.3 22.9999 26.3H12.4499C11.8999 26.3 11.6499 26.55 11.6499 27.1C11.6499 27.55 11.9999 27.95 12.4499 27.95H22.3999L23.6499 31.7C23.7499 32.05 23.9999 32.25 24.3999 32.25L24.6499 32.2ZM29.9999 34.9C30.4999 34.75 30.6499 34.4 30.4999 33.85L26.2999 22.35C26.1499 22.05 25.8999 21.9 25.5499 21.9H13.8499C13.2999 21.9 12.9999 22.15 12.9999 22.7C12.9999 23.15 13.3999 23.55 13.8499 23.55H24.9499L28.9499 34.45C29.0999 34.8 29.3999 34.95 29.7499 34.95L29.9999 34.9ZM1.4499 34.95C1.7999 34.95 2.0999 34.8 2.2499 34.45L14.0999 2.55L19.6499 19.45C19.8499 19.95 20.1999 20 20.6999 20C20.9499 19.95 21.0999 19.8 21.1999 19.6C21.2999 19.4 21.2999 19.2 21.2499 18.95L15.2999 0.800001C15.1499 0.45 14.8499 0.249999 14.4999 0.249999H13.7999C13.4499 0.249999 13.1499 0.45 12.9999 0.800001L0.699902 33.85C0.549902 34.4 0.799902 34.75 1.4499 34.95ZM24.4999 19.95C24.7499 19.9 24.8999 19.75 24.9999 19.55C25.0999 19.35 25.0999 19.15 25.0499 18.9L19.9999 3.55C19.7499 3.05 19.4499 3.05 18.9499 3.05C18.4499 3.2 18.2999 3.55 18.4499 4.1L23.4499 19.45C23.5999 19.8 23.8999 20 24.2499 20L24.4999 19.95Z" fill="white"/>
<path d="M36.9796 34.2C36.9796 34.75 37.2296 35 37.7796 35C38.3296 35 38.6296 34.75 38.6296 34.2V22.1C38.6296 21.55 38.3296 21.3 37.7796 21.3C37.2296 21.3 36.9796 21.55 36.9796 22.1V34.2ZM42.2796 35.05C42.7296 35.05 43.0296 34.85 43.1296 34.45V34.4C43.2296 34.15 43.2296 33.95 43.1296 33.7C43.0296 33.45 42.8296 33.3 42.2796 33.2C41.8796 33.2 41.5796 33.4 41.4296 33.8V33.85C41.3796 34.1 41.3796 34.3 41.4796 34.55C41.5796 34.8 41.7296 34.95 41.9796 35L42.2796 35.05ZM41.4796 31.35C41.4796 31.9 41.7296 32.15 42.2796 32.15C42.7296 32.15 43.1296 31.8 43.1296 31.35V17.6C43.1296 17.15 42.7296 16.75 42.2796 16.75H38.5796V0.85C38.5796 0.4 38.1796 0 37.7296 0C37.2796 0 36.9296 0.4 36.9296 0.85V17.6C36.9296 18.15 37.1796 18.4 37.7296 18.4H41.4796V31.35ZM43.1296 4.55C43.1296 4.1 42.7296 3.7 42.2796 3.7C41.8296 3.7 41.4796 4.1 41.4796 4.55V13.15C41.4796 13.7 41.7296 13.95 42.2796 13.95C42.7296 13.95 43.1296 13.6 43.1296 13.15V4.55Z" fill="white"/>
<path d="M52.3491 34.95C52.8991 34.95 53.1491 34.65 53.1491 34.1V1.7H60.7491C66.4491 1.7 71.1991 2.75 71.1991 9.7C71.1491 9.95 71.1491 10.15 71.0991 10.35C71.0491 10.6 71.0491 10.8 71.1991 10.95C71.3491 11.1 71.4991 11.25 71.7491 11.3C71.9991 11.3 72.1991 11.25 72.3991 11.15C72.7991 10.85 72.8491 9.5 72.8491 9.05C72.8491 1.85 67.1491 0.0499992 60.7491 0.0499992H52.3491C51.8491 0.0499992 51.4991 0.350001 51.4991 0.85V34.1C51.4991 34.55 51.8991 34.95 52.3491 34.95ZM62.6491 30.5C66.6491 30.5 69.6491 29.7 69.6491 24.85C69.6491 22.9 69.2491 21.3 67.6991 20.05C66.1491 19 64.4991 18.75 62.6491 18.75H60.6491C60.0991 18.75 59.8491 19 59.8491 19.55C59.8491 20 60.1991 20.4 60.6491 20.4H62.6491C63.4491 20.4 64.1991 20.45 64.8491 20.55C67.1991 21.1 67.9991 22.45 67.9991 24.85C67.9991 28.7 65.6991 28.85 62.6491 28.85H57.5991V5.95H61.8491C64.4491 5.95 66.5491 6.65 66.5491 9.65C66.5491 10.4 66.4491 11 66.1991 11.5C66.0991 11.7 66.0991 11.9 66.1991 12.1C66.2491 12.35 66.3991 12.5 66.5991 12.6C66.6491 12.65 66.7991 12.65 66.9491 12.65C67.8491 12.65 68.0991 11.1 68.1991 10.45V9.65C68.1991 5.75 65.5491 4.3 61.8491 4.3H56.7491C56.1991 4.3 55.9491 4.55 55.9491 5.1V29.65C55.9491 30.2 56.1991 30.5 56.7491 30.5H62.6491ZM63.9491 34.95C70.3991 34.95 73.9491 30.85 73.9491 24.55C73.9491 18 70.2991 14.4 63.7491 14.4H60.6491C60.1991 14.4 59.7991 14.8 59.7991 15.25C59.7991 15.7 60.1991 16.05 60.6491 16.05H63.7491C69.4491 16.05 72.2991 18.85 72.2991 24.55C72.2991 29.95 69.4991 33.3 63.9491 33.3H56.7991C56.3491 33.3 55.9991 33.7 55.9991 34.15C55.9991 34.7 56.2491 34.95 56.7991 34.95H63.9491ZM70.9991 14C71.3991 14 71.6991 13.8 71.8491 13.4C71.8991 13.15 71.8991 12.9 71.7991 12.65C71.6991 12.45 71.5491 12.3 70.9991 12.2C70.5491 12.2 70.2491 12.4 70.1491 12.8C70.0491 13.05 70.0491 13.3 70.1991 13.5C70.3491 13.75 70.5991 13.9 70.9991 14Z" fill="white"/>
<path d="M84.3315 34.95C84.8815 34.95 85.1315 34.65 85.1315 34.1V1.7H92.7315C98.4315 1.7 103.182 2.75 103.182 9.7C103.132 9.95 103.132 10.15 103.082 10.35C103.032 10.6 103.032 10.8 103.182 10.95C103.332 11.1 103.482 11.25 103.732 11.3C103.982 11.3 104.182 11.25 104.382 11.15C104.782 10.85 104.832 9.5 104.832 9.05C104.832 1.85 99.1315 0.0499992 92.7315 0.0499992H84.3315C83.8315 0.0499992 83.4815 0.350001 83.4815 0.85V34.1C83.4815 34.55 83.8815 34.95 84.3315 34.95ZM94.6315 30.5C98.6315 30.5 101.632 29.7 101.632 24.85C101.632 22.9 101.232 21.3 99.6815 20.05C98.1315 19 96.4815 18.75 94.6315 18.75H92.6315C92.0815 18.75 91.8315 19 91.8315 19.55C91.8315 20 92.1815 20.4 92.6315 20.4H94.6315C95.4315 20.4 96.1815 20.45 96.8315 20.55C99.1815 21.1 99.9815 22.45 99.9815 24.85C99.9815 28.7 97.6815 28.85 94.6315 28.85H89.5815V5.95H93.8315C96.4315 5.95 98.5315 6.65 98.5315 9.65C98.5315 10.4 98.4315 11 98.1815 11.5C98.0815 11.7 98.0815 11.9 98.1815 12.1C98.2315 12.35 98.3815 12.5 98.5815 12.6C98.6315 12.65 98.7815 12.65 98.9315 12.65C99.8315 12.65 100.082 11.1 100.182 10.45V9.65C100.182 5.75 97.5315 4.3 93.8315 4.3H88.7315C88.1815 4.3 87.9315 4.55 87.9315 5.1V29.65C87.9315 30.2 88.1815 30.5 88.7315 30.5H94.6315ZM95.9315 34.95C102.382 34.95 105.932 30.85 105.932 24.55C105.932 18 102.282 14.4 95.7315 14.4H92.6315C92.1815 14.4 91.7815 14.8 91.7815 15.25C91.7815 15.7 92.1815 16.05 92.6315 16.05H95.7315C101.432 16.05 104.282 18.85 104.282 24.55C104.282 29.95 101.482 33.3 95.9315 33.3H88.7815C88.3315 33.3 87.9815 33.7 87.9815 34.15C87.9815 34.7 88.2315 34.95 88.7815 34.95H95.9315ZM102.982 14C103.382 14 103.682 13.8 103.832 13.4C103.882 13.15 103.882 12.9 103.782 12.65C103.682 12.45 103.532 12.3 102.982 12.2C102.532 12.2 102.232 12.4 102.132 12.8C102.032 13.05 102.032 13.3 102.182 13.5C102.332 13.75 102.582 13.9 102.982 14Z" fill="white"/>
</svg>
