<svg width="18" height="20" viewBox="0 0 18 20" fill="none" xmlns="http://www.w3.org/2000/svg">
<path d="M7.54916 0.532689C8.38719 -0.174308 9.61281 -0.174308 10.4508 0.532689L17.2008 6.22723C17.7076 6.65474 18 7.28399 18 7.94698V17.7499C18 18.7164 17.2165 19.4999 16.25 19.4999H13.25C12.2835 19.4999 11.5 18.7164 11.5 17.7499V12.7499C11.5 12.3357 11.1642 11.9999 10.75 11.9999H7.25C6.83579 11.9999 6.5 12.3357 6.5 12.7499V17.7499C6.5 18.7164 5.7165 19.4999 4.75 19.4999H1.75C0.783502 19.4999 0 18.7164 0 17.7499V7.94698C0 7.28399 0.292405 6.65474 0.799155 6.22723L7.54916 0.532689Z" fill="url(#paint0_linear_367_387)"/>
<defs>
<linearGradient id="paint0_linear_367_387" x1="2.15035e-07" y1="-5.48869e-08" x2="18" y2="19" gradientUnits="userSpaceOnUse">
<stop stop-color="white"/>
<stop offset="1" stop-color="white"/>
</linearGradient>
</defs>
</svg>
