<svg width="25" height="24" viewBox="0 0 25 24" fill="none" xmlns="http://www.w3.org/2000/svg">
<path fill-rule="evenodd" clip-rule="evenodd" d="M7.44331 23.6666H17.5544C21.5097 23.6666 24.1661 20.8921 24.1661 16.7637V7.23609C24.1661 3.10772 21.5097 0.333252 17.5556 0.333252H7.44331C3.48914 0.333252 0.832764 3.10772 0.832764 7.23609V16.7637C0.832764 20.8921 3.48914 23.6666 7.44331 23.6666ZM8.41411 10.8331C6.8057 10.8331 5.49878 9.52443 5.49878 7.91645C5.49878 6.30846 6.8057 4.99978 8.41411 4.99978C10.0214 4.99978 11.3295 6.30846 11.3295 7.91645C11.3295 9.52443 10.0214 10.8331 8.41411 10.8331ZM21.6232 15.4226C22.0138 16.4244 21.8109 17.6283 21.3932 18.6204C20.8982 19.8003 19.9502 20.6937 18.7559 21.0838C18.2257 21.2572 17.6696 21.333 17.1147 21.333H7.28232C6.30389 21.333 5.43809 21.0982 4.72832 20.6612C4.28369 20.3867 4.20509 19.7534 4.53475 19.3428C5.08614 18.6565 5.63049 17.9679 6.17953 17.2732C7.22601 15.944 7.93108 15.5587 8.71476 15.897C9.03269 16.0367 9.3518 16.2462 9.68028 16.4677C10.5555 17.0625 11.7721 17.88 13.3746 16.9926C14.4713 16.3784 15.1073 15.3248 15.6612 14.4074L15.6705 14.392C15.7097 14.3278 15.7485 14.2635 15.7872 14.1994L15.7874 14.1991L15.7874 14.1991C15.9736 13.8911 16.1573 13.5872 16.365 13.3072C16.6255 12.9569 17.591 11.8612 18.8416 12.6414C19.6382 13.1326 20.3081 13.7972 21.0249 14.5088C21.2982 14.7809 21.493 15.0903 21.6232 15.4226Z" fill="#9E9E9E"/>
</svg>
