<svg width="17" height="20" viewBox="0 0 17 20" fill="none" xmlns="http://www.w3.org/2000/svg">
<path d="M13.7543 11.9997C14.9963 11.9997 16.0032 13.0065 16.0032 14.2486V15.167C16.0032 15.7404 15.8239 16.2994 15.4906 16.7659C13.9447 18.9292 11.4204 20.0008 8.00012 20.0008C4.57915 20.0008 2.05619 18.9287 0.51403 16.7643C0.182067 16.2984 0.00366211 15.7406 0.00366211 15.1685V14.2486C0.00366211 13.0065 1.01052 11.9997 2.25254 11.9997H13.7543ZM8.00012 0.00439453C10.7615 0.00439453 13.0001 2.24297 13.0001 5.00439C13.0001 7.76582 10.7615 10.0044 8.00012 10.0044C5.2387 10.0044 3.00012 7.76582 3.00012 5.00439C3.00012 2.24297 5.2387 0.00439453 8.00012 0.00439453Z" fill="url(#paint0_linear_367_36)"/>
<defs>
<linearGradient id="paint0_linear_367_36" x1="0.0036623" y1="0.00189059" x2="18.4183" y2="16.8482" gradientUnits="userSpaceOnUse">
<stop stop-color="white"/>
<stop offset="1" stop-color="white"/>
</linearGradient>
</defs>
</svg>
