<svg width="18" height="19" viewBox="0 0 18 19" fill="none" xmlns="http://www.w3.org/2000/svg">
<path d="M17.0688 10.4682C17.2485 10.3781 17.3996 10.2398 17.5052 10.0688C17.6108 9.89772 17.6667 9.70067 17.6667 9.49966C17.6667 9.29865 17.6108 9.1016 17.5052 8.93056C17.3996 8.75951 17.2485 8.62122 17.0688 8.53116L1.90215 0.947823C1.7141 0.853728 1.50273 0.816398 1.29382 0.840384C1.08491 0.864371 0.887499 0.948637 0.725666 1.08291C0.563833 1.21717 0.444574 1.39564 0.382439 1.59653C0.320301 1.79742 0.317972 2.01205 0.375736 2.21424L1.92382 7.63091C1.98857 7.8573 2.12532 8.05642 2.31337 8.19814C2.50142 8.33986 2.73052 8.41645 2.96599 8.41632L7.9179 8.41632C8.20522 8.41632 8.48077 8.53046 8.68394 8.73362C8.8871 8.93679 9.00124 9.21234 9.00124 9.49966C9.00124 9.78697 8.8871 10.0625 8.68394 10.2657C8.48077 10.4689 8.20522 10.583 7.9179 10.583L2.96599 10.583C2.73052 10.5829 2.50142 10.6595 2.31337 10.8012C2.12532 10.9429 1.98857 11.142 1.92382 11.3684L0.376819 16.7851C0.31894 16.9872 0.32113 17.2018 0.383119 17.4027C0.44511 17.6036 0.564222 17.7821 0.725929 17.9165C0.887635 18.0509 1.08495 18.1353 1.29381 18.1595C1.50266 18.1836 1.71404 18.1465 1.90215 18.0526L17.0688 10.4692L17.0688 10.4682Z" fill="#7F7F7F"/>
</svg>
